<svg id="Layer_1" enable-background="new 0 0 500 500" viewBox="0 0 500 500" xmlns="http://www.w3.org/2000/svg" xmlns:xlink="http://www.w3.org/1999/xlink"><linearGradient id="SVGID_1_" gradientUnits="userSpaceOnUse" x1="103.854" x2="458.22" y1="434.213" y2="79.847"><stop offset="0" stop-color="#2849d4"/><stop offset=".1087" stop-color="#2752d5"/><stop offset=".2862" stop-color="#256ad9"/><stop offset=".5103" stop-color="#2092de"/><stop offset=".7694" stop-color="#1bc9e6"/><stop offset="1" stop-color="#15ffee"/></linearGradient><path clip-rule="evenodd" d="m271.382 245.326c-12.487 12.5-32.739 12.504-45.248.001-12.516-12.509-12.517-32.75-.001-45.26 12.49-12.484 32.769-12.485 45.248-.001 12.476 12.476 12.489 32.783.001 45.26zm-54.953-54.951c-17.86 17.85-17.865 46.796.002 64.649 17.861 17.848 46.788 17.854 64.655-.002 17.824-17.825 17.823-46.825-.002-64.649-17.824-17.823-46.831-17.822-64.655.002zm204.28 199.292v-1.756c0-13.735-7.498-25.754-18.616-32.189 13.064-15.668 1.907-39.669-18.582-39.668-20.471 0-31.635 23.999-18.568 39.669-11.119 6.435-18.609 18.455-18.609 32.189v1.756c-7.509-8.646-12.06-19.903-12.061-32.217-.001-27.147 22.091-49.24 49.238-49.24 27.158-.001 49.251 22.091 49.252 49.238 0 12.314-4.551 23.571-12.054 32.218zm-47.669-49.417c0 5.776 4.696 10.471 10.472 10.471 5.787 0 10.483-4.696 10.483-10.472s-4.696-10.489-10.483-10.489c-5.776 0-10.472 4.714-10.472 10.49zm-13 60.473c14.583 7.961 32.38 7.957 46.958-.001v-12.811c0-12.938-10.53-23.479-23.485-23.478-12.938 0-23.473 10.541-23.473 23.479zm-61.643-119.576 8.808-8.82-6.123-12.02c-1.063-2.085-.988-4.58.208-6.602 2.917-4.927 5.111-10.235 6.538-15.791.583-2.27 2.287-4.089 4.522-4.817l12.834-4.171v-12.464l-12.834-4.17c-2.235-.733-3.939-2.553-4.523-4.817-1.427-5.568-3.627-10.876-6.539-15.797-1.196-2.021-1.271-4.511-.208-6.608l6.117-12.031-8.803-8.796-12.019 6.122c-2.097 1.069-4.58.988-6.602-.214-4.915-2.905-10.235-5.094-15.791-6.532-2.281-.578-4.095-2.287-4.817-4.517l-4.17-12.834h-12.464l-4.181 12.834c-.722 2.229-2.541 3.939-4.817 4.528-5.556 1.427-10.864 3.616-15.791 6.533-2.022 1.19-4.511 1.271-6.602.202l-12.02-6.122-8.802 8.797 6.117 12.042c1.057 2.085.988 4.574-.214 6.596-2.905 4.921-5.106 10.241-6.532 15.797-.583 2.276-2.287 4.084-4.522 4.817l-12.834 4.171v12.464l12.834 4.17c2.235.728 3.939 2.547 4.523 4.817 1.427 5.562 3.627 10.876 6.533 15.791 1.202 2.021 1.271 4.517.214 6.613l-6.122 12.008 8.809 8.819 12.019-6.123c2.091-1.069 4.58-.988 6.602.208 4.927 2.911 10.235 5.111 15.791 6.538 2.276.572 4.095 2.282 4.817 4.511l4.182 12.846h12.464l4.17-12.846c.722-2.229 2.536-3.939 4.817-4.511 5.556-1.438 10.876-3.627 15.791-6.538 2.021-1.196 4.505-1.277 6.602-.208zm-76.465-173.782.001 45.618c-2.68 1.022-5.291 2.184-7.826 3.506l-13.198-6.723c-2.651-1.346-5.857-.843-7.959 1.259l-2.634 2.634-.001-46.294zm85.262-39.492.002 85.783-2.634-2.634c-2.102-2.091-5.308-2.605-7.959-1.259l-13.198 6.723c-2.536-1.322-5.146-2.483-7.82-3.506l-.002-85.107zm-9.186 345.403c0 12.308-4.551 23.571-12.059 32.218v-1.756c0-13.747-7.492-25.76-18.611-32.2 13.073-15.683 1.887-39.663-18.57-39.662-20.501 0-31.636 24.009-18.586 39.663-11.113 6.44-18.609 18.454-18.609 32.201v1.756c-7.503-8.646-12.055-19.909-12.055-32.217-.001-27.158 22.091-49.246 49.249-49.246 27.146-.002 49.24 22.085 49.241 49.243zm-59.724-17.205c0 5.776 4.696 10.477 10.483 10.477 5.776 0 10.472-4.702 10.471-10.477 0-5.782-4.696-10.483-10.472-10.483-5.786-.001-10.482 4.701-10.482 10.483zm-12.999 60.474c14.613 7.965 32.34 7.967 46.958-.001v-12.805c0-12.95-10.536-23.479-23.474-23.478-12.955 0-23.484 10.53-23.484 23.479zm-71.617-66.479v-1.75c0-13.752-7.503-25.76-18.616-32.206 13.029-15.585 1.958-39.657-18.576-39.657-20.491 0-31.635 24.011-18.574 39.658-11.113 6.446-18.615 18.454-18.615 32.206v1.75c-7.497-8.646-12.049-19.903-12.049-32.217-.001-27.158 22.091-49.24 49.238-49.241 27.158-.001 49.24 22.08 49.24 49.238 0 12.315-4.551 23.573-12.048 32.219zm-47.67-49.417c0 5.776 4.702 10.471 10.478 10.471s10.472-4.696 10.472-10.472c0-5.788-4.696-10.489-10.472-10.489-5.776.001-10.478 4.703-10.478 10.49zm-13.005 60.474c14.626 7.959 32.341 7.957 46.964-.001v-12.805c0-12.955-10.536-23.484-23.48-23.484s-23.484 10.53-23.484 23.485zm290.518-106.624c-14.89 0-28.579 5.211-39.368 13.886l-26.801-26.799 3.084-3.079c2.103-2.102 2.61-5.32 1.259-7.965l-6.729-13.203c2.068-3.939 3.777-8.075 5.1-12.332l14.105-4.581c2.824-.913 4.736-3.546 4.736-6.515l-.001-22.434c0-2.969-1.912-5.603-4.736-6.515l-13.256-4.308-.001-24.276.78-1.536c1.236-2.42.895-5.308-.78-7.393l-.003-106.432c0-3.783-3.067-6.856-6.85-6.856l-45.318.001c-3.792 0-6.856 3.065-6.856 6.856l.002 71.829c-.612-.185-1.254-.289-1.906-.289l-22.428.001c-.658 0-1.3.104-1.9.289l-.001-32.345c0-3.783-3.073-6.85-6.856-6.85l-45.329.001c-3.783 0-6.856 3.067-6.856 6.85l.002 66.948c-1.675 2.085-2.01 4.973-.774 7.393l.774 1.536.001 24.276-13.25 4.309c-2.824.913-4.736 3.546-4.736 6.515l.001 22.434c0 2.969 1.912 5.603 4.736 6.515l14.105 4.58c1.323 4.268 3.033 8.392 5.095 12.337l-6.723 13.198c-1.351 2.645-.843 5.863 1.259 7.965l4.517 4.511-25.76 25.761c-10.795-8.681-24.484-13.885-39.374-13.884-34.719.001-62.95 28.24-62.949 62.953.001 34.707 28.234 62.95 62.953 62.95 34.713-.001 62.951-28.245 62.95-62.953 0-14.89-5.216-28.585-13.886-39.374l25.754-25.761 1.658 1.652c2.102 2.108 5.308 2.605 7.959 1.265l13.198-6.729c3.951 2.068 8.075 3.766 12.331 5.1l4.581 14.093c.924 2.824 3.558 4.748 6.527 4.748h4.361l.001 37.861c-31.501 3.426-56.106 30.18-56.105 62.577.001 34.701 28.246 62.945 62.964 62.944 34.701-.001 62.951-28.245 62.95-62.947-.001-32.397-24.601-59.15-56.097-62.575l-.001-37.861h4.355c2.963 0 5.597-1.923 6.521-4.748l4.58-14.093c4.257-1.334 8.386-3.033 12.331-5.1l13.198 6.729c2.651 1.34 5.857.843 7.959-1.265l3.079-3.079 26.801 26.794c-8.675 10.79-13.884 24.484-13.884 39.375.001 34.713 28.251 62.95 62.953 62.949 34.719-.001 62.962-28.24 62.961-62.953-.004-34.715-28.249-62.952-62.967-62.951zm-246.847-129.969.001 54.495-31.611.001-.001-54.495zm-38.466 68.203c-3.783 0-6.85-3.067-6.85-6.85l-.002-68.207c0-3.791 3.064-6.856 6.85-6.856l45.318-.001c3.789 0 6.856 3.072 6.856 6.856l.002 68.207c0 3.783-3.067 6.85-6.856 6.85zm262.647-195.266 31.605-.001.004 181.553-31.605.001zm-6.851 195.26c-3.783 0-6.856-3.067-6.856-6.85l-.005-195.224c0-3.812 3.073-6.873 6.856-6.874l45.318-.001c3.795 0 6.856 3.061 6.856 6.873l.005 195.224c0 3.783-3.061 6.85-6.856 6.85z" fill="url(#SVGID_1_)" fill-rule="evenodd"/></svg>