<svg id="Layer_1" enable-background="new 0 0 512 512" viewBox="0 0 512 512" xmlns="http://www.w3.org/2000/svg" xmlns:xlink="http://www.w3.org/1999/xlink"><linearGradient id="SVGID_1_" gradientUnits="userSpaceOnUse" x1="32.683" x2="479.317" y1="256" y2="256"><stop offset="0" stop-color="#1ba2d8"/><stop offset="1" stop-color="#9635fd"/></linearGradient><path d="m332.766 113.205h-48.955c-3.867 0-7.001 3.135-7.001 7.002v102.075c0 3.867 3.135 7.002 7.001 7.002h48.955c3.867 0 7.001-3.135 7.001-7.002v-102.075c0-3.868-3.134-7.002-7.001-7.002zm-7.002 102.075h-34.952v-88.071h34.952zm76.791-67.181h-48.983c-3.867 0-7.001 3.135-7.001 7.002v67.181c0 3.867 3.135 7.002 7.001 7.002h48.983c3.867 0 7.001-3.135 7.001-7.002v-67.181c0-3.867-3.134-7.002-7.001-7.002zm-7.002 67.181h-34.98v-53.177h34.98zm76.762-107.745h-19.417v-21.331c13.027-.318 23.527-11.006 23.527-24.108 0-13.118-10.501-23.818-23.527-24.136v-30.969c0-3.867-3.135-7.002-7.001-7.002h-217.078c-.082 0-.16.009-.241.012-.077.002-.153.006-.229.012-.301.02-.598.053-.887.11-.004 0-.007.001-.011.001-.312.062-.614.149-.909.25-.052.018-.103.038-.155.057-.28.104-.553.221-.815.359-.015.008-.03.014-.045.021-.274.146-.534.314-.784.494-.055.04-.109.081-.163.122-.25.19-.49.392-.712.613l-77.866 77.894s-.001 0-.001.001c-.221.221-.421.461-.611.71-.042.055-.083.109-.123.165-.179.25-.346.508-.491.781-.01.019-.018.038-.027.057-.134.257-.25.525-.352.8-.021.055-.042.11-.061.166-.1.292-.186.59-.248.898-.002.014-.003.027-.006.04-.054.279-.087.564-.106.854-.006.083-.01.166-.012.249-.003.077-.012.152-.012.23v182.619c-8.197 4.402-15.9 10.04-22.809 16.949-32.251 32.251-37.17 81.632-14.777 119.122l-66.719 66.718c-4.49 4.489-6.962 10.48-6.962 16.871 0 6.39 2.472 12.381 6.96 16.869l.993.994c4.655 4.654 10.77 6.982 16.885 6.982s12.229-2.328 16.885-6.982l66.971-66.972c15.05 8.682 31.931 13.041 48.82 13.041 25.009 0 50.018-9.52 69.056-28.558 5.521-5.521 10.215-11.555 14.134-17.934h172.509c3.867 0 7.001-3.135 7.001-7.002v-168.318h19.417c3.867 0 7.001-3.135 7.001-7.002v-107.745c0-3.868-3.135-7.002-7.002-7.002zm-9.892-45.439c0 5.58-4.54 10.119-10.12 10.119-5.596 0-10.148-4.539-10.148-10.119 0-5.596 4.553-10.147 10.148-10.147 5.58 0 10.12 4.551 10.12 10.147zm-240.605-38.198v53.986h-53.967zm-157.313 471.228c-3.852 3.852-10.117 3.85-13.965.002l-.993-.993c-1.845-1.846-2.861-4.32-2.861-6.97s1.016-5.124 2.86-6.969l64.977-64.977c2.062 2.523 4.266 4.968 6.618 7.32 2.698 2.698 5.528 5.184 8.449 7.5zm184.847-82.488c-32.619 32.617-85.692 32.617-118.31 0-32.61-32.61-32.61-85.671 0-118.281 16.309-16.309 37.732-24.464 59.155-24.464s42.846 8.155 59.155 24.464c32.61 32.61 32.61 85.671 0 118.281zm189.543-22.035h-158.377c14.465-35.339 7.382-77.501-21.264-106.148-27.347-27.346-67.011-35.05-101.3-23.117v-169.45h70.866c3.867 0 7.001-3.135 7.001-7.002v-70.893h203.075v28.027c-6.473 4.337-10.744 11.717-10.744 20.077 0 1.693.177 3.346.511 4.942l-34.326 18.804c-4.353-4.27-10.307-6.909-16.868-6.909-6.816 0-12.976 2.842-17.371 7.398l-28.058-14.327c.249-1.387.386-2.811.386-4.268 0-13.317-10.821-24.151-24.123-24.151-13.317 0-24.151 10.834-24.151 24.151 0 3.164.619 6.184 1.732 8.955l-35.011 28.022c-3.882-2.67-8.578-4.237-13.635-4.237-13.317 0-24.151 10.821-24.151 24.123 0 13.317 10.834 24.151 24.151 24.151 13.302 0 24.123-10.834 24.123-24.151 0-3.166-.619-6.188-1.732-8.959l35.013-28.024c3.888 2.674 8.594 4.245 13.661 4.245 6.809 0 12.963-2.84 17.354-7.393l28.051 14.324c-.251 1.395-.39 2.828-.39 4.294 0 13.302 10.834 24.123 24.151 24.123 13.301 0 24.123-10.821 24.123-24.123 0-1.703-.179-3.364-.516-4.968l34.331-18.807c1.072 1.049 2.238 2.001 3.489 2.838v25.386h-15.534c-3.867 0-7.001 3.135-7.001 7.002v107.745c0 3.867 3.135 7.002 7.001 7.002h15.534v161.318zm-61.426-297.666c5.58 0 10.12 4.553 10.12 10.148 0 5.58-4.54 10.119-10.12 10.119-5.596 0-10.148-4.539-10.148-10.119-.001-5.595 4.552-10.148 10.148-10.148zm-76.98-18.751c-.034-.045-.063-.093-.099-.137-.013-.017-.029-.031-.042-.048-1.369-1.725-2.193-3.898-2.193-6.264 0-5.596 4.553-10.147 10.148-10.147 5.58 0 10.12 4.552 10.12 10.147 0 5.58-4.54 10.12-10.12 10.12-3.14 0-5.951-1.43-7.814-3.671zm-53.131 50.414c0 5.596-4.54 10.147-10.12 10.147-5.596 0-10.148-4.552-10.148-10.147 0-5.58 4.552-10.119 10.148-10.119 5.58 0 10.12 4.539 10.12 10.119zm217.956 90.68h-34.951v-93.741h34.951zm-203.613-48.388h-48.955c-3.867 0-7.001 3.135-7.001 7.002v48.388c0 3.867 3.135 7.002 7.001 7.002h48.955c3.867 0 7.001-3.135 7.001-7.002v-48.388c.001-3.867-3.134-7.002-7.001-7.002zm-7.001 48.388h-34.952v-34.384h34.952zm-64.517 82.46c-30.729 0-55.729 25.013-55.729 55.758 0 30.729 25 55.729 55.729 55.729 30.745 0 55.757-25 55.757-55.729.001-30.746-25.012-55.758-55.757-55.758zm0 97.483c-23.008 0-41.726-18.718-41.726-41.726 0-23.023 18.718-41.754 41.726-41.754 23.023 0 41.754 18.73 41.754 41.754.001 23.008-18.73 41.726-41.754 41.726z" fill="url(#SVGID_1_)"/></svg>