<svg id="Layer_1" enable-background="new 0 0 512 512" viewBox="0 0 512 512" xmlns="http://www.w3.org/2000/svg" xmlns:xlink="http://www.w3.org/1999/xlink"><linearGradient id="SVGID_1_" gradientUnits="userSpaceOnUse" x1="256" x2="256" y1="24.439" y2="487.562"><stop offset="0" stop-color="#a03a8d"/><stop offset="1" stop-color="#1f3c8d"/></linearGradient><path d="m177.55 326.36c-.5 2.67-2.66 4.64-5.36 4.9l-.82.07-.9.07-.91.06-.92.06-.92.05-.94.04-.95.03c-2.45.07-4.63-1.31-5.65-3.53-1.73-3.93.99-8.31 5.29-8.47l.85-.03.84-.04.83-.04.81-.05.8-.06.79-.06.71-.06c3.97-.35 7.15 3.14 6.45 7.06zm13.04-136.64c-3.8-.05-7.57-.18-11.36-.46-2.98-.22-5.64 1.74-6.31 4.65-.8 3.59 1.73 7.02 5.39 7.31l.78.06c3.78.25 7.54.39 11.33.44 4.86.07 7.78-5.39 5.03-9.4-1.1-1.6-2.91-2.57-4.86-2.6zm24.09 110.26c-2.21-.59-4.5.06-6.04 1.76-2.42 2.65-4.96 5.02-7.83 7.18-1.7 1.29-2.59 3.4-2.32 5.51.58 4.58 5.91 6.84 9.59 4.04l.82-.62.94-.74.91-.75.45-.38c2.26-1.95 4.33-3.97 6.34-6.18 2.98-3.34 1.44-8.61-2.86-9.82zm-56.95-177.04c-2.93-1.55-6.56-.43-8.11 2.5l-.61 1.17-.69 1.33-.67 1.32-.65 1.3-.63 1.29-.61 1.27-.59 1.26-.57 1.24-.3.66c-1.09 2.44-.5 5.21 1.48 6.99 3.03 2.66 7.75 1.66 9.43-2l.3-.66.53-1.16.55-1.18.57-1.19.59-1.21.61-1.23.63-1.25.65-1.26.58-1.1c1.56-2.91.44-6.54-2.49-8.09zm-6.82 56.33-.24-.33-.23-.33-.22-.34-.21-.35-.2-.36-.19-.36-.18-.37-.18-.38-.17-.39-.16-.4-.15-.41-.14-.43-.13-.44-.12-.45-.11-.46-.1-.48-.09-.49c-.41-2.51-1.29-4.25-3.75-5.31-4.28-1.73-8.78 1.71-8.24 6.28l.04.29.13.8.15.79.17.78.19.77.21.76.23.75.25.74.27.73.28.72.3.71.32.7.34.69.36.67.38.66.4.65.41.63.43.62.45.6.51.65c1.76 2.16 4.74 2.84 7.25 1.64 3.5-1.69 4.51-6.16 2.08-9.19zm203.74 39.4c-.17 1.85.48 3.64 1.82 4.92l.56.56.46.47.45.47.44.47.43.48.42.48.41.48.4.48.39.48.38.48.37.48.36.48.35.48.34.49.33.48.32.48.15.24c2.53 3.88 8.27 3.57 10.39-.55.96-1.94.85-4.15-.32-5.97l-.15-.24-.41-.63-.43-.63-.44-.62-.45-.62-.46-.62-.47-.61-.48-.61-.49-.61-.5-.6-.52-.6-.53-.6-.54-.59-.55-.59-.56-.59-.57-.58-.78-.77c-3.63-3.46-9.61-1.26-10.12 3.73zm-181.79-113.95c2.01.44 4.07-.14 5.54-1.6l.23-.24.39-.38.39-.37.38-.35.38-.33.37-.32.37-.3.36-.29.36-.27.35-.26.35-.25.34-.23.34-.22.33-.21.33-.19.32-.18.32-.17.31-.16.31-.15.3-.14.3-.13.3-.12-.08.03c4.62-1.65 5.42-7.81 1.39-10.6-1.62-1.09-3.55-1.35-5.4-.71l-.2.07-.57.22-.56.24-.56.25-.56.27-.56.28-.55.3-.55.31-.55.33-.55.34-.54.35-.54.37-.54.38-.54.4-.53.41-.53.43-.53.44-.53.45-.53.47-.52.48-.52.49-.52.51-.23.24c-3.35 3.35-1.69 9.03 2.93 10.11zm52.81 13.42c4.26-1.6 5.27-7.15 1.85-10.14-2.95-2.58-5.85-5.2-8.8-7.78-2.29-2-5.69-1.97-7.96.05-2.68 2.41-2.66 6.61.06 8.98 2.95 2.58 5.85 5.21 8.8 7.78 1.68 1.46 3.97 1.87 6.05 1.11zm109.94 177.13.79-.11 1.08-.17c2.47-.42 4.42-2.33 4.89-4.79.78-4.11-2.78-7.74-6.91-7.04l-.79.12-.64.09-.64.08-.65.07-.65.07-.66.06-.66.05-.67.04-.68.04-.68.03-.68.02-.69.01h-.69-.7l-1.06-.02c-4.75-.1-7.74 5.08-5.25 9.14 1.09 1.75 2.91 2.79 4.97 2.85l1.19.03.84.01h.84l.83-.01.83-.02.82-.03.82-.04.82-.05.81-.06.8-.07.8-.08.8-.09zm-42.28-19.67c-1.38-.62-2.77-1.21-4.17-1.79l-.95-.39-1.87-.75-.92-.36-.91-.35-.9-.34-1.54-.57c-4.63-1.69-9.21 2.61-7.82 7.35.54 1.83 1.9 3.25 3.68 3.92.77.28 1.54.56 2.3.85.86.33 1.71.67 2.56 1.01 1.89.77 3.77 1.56 5.64 2.39 4.22 1.86 8.82-1.45 8.42-6.04-.22-2.19-1.52-4.04-3.52-4.93zm7.44-154.86-.87.47-.86.46-.86.44-.85.43-.84.41-.78.37c-4.29 2.09-4.56 8.07-.47 10.55 1.76 1.04 3.85 1.14 5.69.25l.78-.37.96-.47.97-.49.97-.5.97-.52.98-.53c2.63-1.45 3.78-4.63 2.7-7.42-1.33-3.38-5.31-4.83-8.49-3.08zm19.42 83.77 1.05.3 1.04.31 1.03.31 1.01.32 1 .32.99.33.97.33 1.21.43c4.7 1.64 9.22-2.73 7.72-7.49-.59-1.79-1.92-3.18-3.7-3.81l-1.31-.46-1.07-.37-1.08-.36-1.1-.35-1.11-.35-1.12-.34-1.13-.33-1.15-.33-1.16-.32-1.53-.41c-4.57-1.13-8.57 3.1-7.21 7.6.64 2 2.21 3.51 4.25 4.03l1.33.35zm-76.84-9.43c.7-3.81-2.34-7.28-6.21-7.08-3.91.2-7.83.41-11.74.62-5 .29-7.48 6.15-4.2 9.94 1.23 1.39 2.97 2.14 4.83 2.04 3.91-.21 7.81-.42 11.72-.61 2.79-.16 5.1-2.18 5.6-4.91zm127.11 61.2c-1.83.57-3.21 1.88-3.89 3.67l-.11.3-.17.44-.18.43-.19.44-.19.43-.2.43-.21.43-.21.43-.22.42-.23.42-.23.42-.24.42-.25.41-.25.41-.26.41-.27.4-.27.4-.28.4-.29.39-.29.39-.34.44c-1.38 1.83-1.6 4.21-.61 6.27 1.99 4.01 7.46 4.54 10.17.98l.34-.44.4-.53.39-.54.38-.54.37-.54.36-.55.35-.55.35-.56.34-.56.33-.57.32-.57.31-.58.3-.58.29-.58.28-.59.28-.59.27-.6.26-.6.25-.6.24-.61.18-.47c1.7-4.68-2.63-9.25-7.38-7.83zm-121.05 12c-1.57-1.3-3.62-1.73-5.58-1.15l-.31.1-.52.17-.51.18-.51.18-.5.19-.49.2-.49.21-.49.21-.48.22-.47.22-.47.23-.46.24-.46.24-.45.25-.45.25-.44.26-.43.26-.43.27-.43.28-.42.28-.41.29-.41.29-.4.29-.4.3-.39.3-.39.31-.68.56c-2.64 2.16-2.93 6.07-.68 8.62 2.15 2.41 5.8 2.7 8.29.65 1.91-1.59 3.75-2.78 6.04-3.78.43-.18.85-.34 1.28-.5.27-.09.53-.18.8-.27 4.58-1.4 5.78-7.23 2.14-10.35zm20.37-135.48c-.77-2.1-2.6-3.6-4.82-3.91l-.37-.05-.6-.1-.6-.1-.6-.11-.59-.12-.59-.13-.59-.14-.58-.14-.58-.15-.58-.16-.58-.16-.57-.17-.57-.18-.57-.19-.57-.19-.56-.2-.56-.2-.41-.16c-4.03-1.48-8.23 1.55-8.09 5.84.11 2.44 1.6 4.54 3.9 5.4l.41.16.69.25.7.25.7.24.71.23.71.22.72.21.72.21.73.2.73.19.74.18.74.17.75.16.75.15.76.14.76.13.76.12.54.08c4.47.61 7.98-3.69 6.46-7.97zm19.82 63.51c2.26-3.93-.39-8.79-4.91-9.02-3.99-.19-7.99-.27-11.99-.3-5.11 0-7.88 5.92-4.62 9.85 1.15 1.36 2.79 2.13 4.57 2.15 3.84.05 7.66.11 11.5.29 2.24.09 4.31-1.04 5.45-2.97zm207.4-127.07v38.8c0 3.31-2.69 6-6 6h-71.6v329.14c0 24.47-19.91 44.38-44.38 44.38h-315.64c-24.47 0-44.38-19.91-44.38-44.38v-38.38c0-3.31 2.69-6 6-6h39.29v-331.45c0-23.66 19.25-42.91 42.91-42.91h346.12c.26 0 .51.02.76.05.7-.03 1.4-.05 2.11-.05 24.71 0 44.81 20.1 44.81 44.8zm-152.29 406.32c-8.65-8.1-14.08-19.62-14.08-32.38v-32.38h-303.63v32.38c0 17.85 14.53 32.38 32.38 32.38zm62.69-366.02c0-.25.02-.5.05-.75-.03-.25-.05-.5-.05-.75v-38.8c0-12.94 5.52-24.61 14.33-32.8h-318.52c-17.05 0-30.91 13.87-30.91 30.91v331.45h264.34c3.31 0 6 2.69 6 6v38.38c0 17.85 14.53 32.38 32.38 32.38s32.38-14.53 32.38-32.38zm77.6-40.3c0-18.09-14.71-32.8-32.8-32.8s-32.8 14.71-32.8 32.8v32.8h65.6zm-124.12 284.03 7.91-7.91c2.34-2.34 2.34-6.14 0-8.49-2.34-2.34-6.14-2.34-8.49 0l-7.91 7.91-7.91-7.91c-2.34-2.34-6.14-2.34-8.49 0-2.34 2.34-2.34 6.14 0 8.48l7.91 7.91-7.91 7.91c-2.34 2.34-2.34 6.14 0 8.49 1.17 1.17 2.71 1.76 4.24 1.76 1.54 0 3.07-.59 4.24-1.76l7.91-7.91 7.91 7.91c1.17 1.17 2.71 1.76 4.24 1.76s3.07-.59 4.24-1.76c2.34-2.34 2.34-6.14 0-8.48zm-211.8-19.74c0 11.75-9.56 21.31-21.31 21.31s-21.31-9.56-21.31-21.31 9.56-21.31 21.31-21.31 21.31 9.56 21.31 21.31zm-12 0c0-5.14-4.18-9.31-9.31-9.31s-9.31 4.18-9.31 9.31 4.18 9.31 9.31 9.31 9.31-4.17 9.31-9.31zm-25.68-245.95c1.17 1.17 2.71 1.76 4.24 1.76s3.07-.59 4.24-1.76l7.91-7.91 7.91 7.91c1.17 1.17 2.71 1.76 4.24 1.76s3.07-.59 4.24-1.76c2.34-2.34 2.34-6.14 0-8.49l-7.91-7.91 7.91-7.91c2.34-2.34 2.34-6.14 0-8.49-2.34-2.34-6.14-2.34-8.49 0l-7.91 7.91-7.91-7.91c-2.34-2.34-6.14-2.34-8.49 0-2.34 2.34-2.34 6.14 0 8.49l7.91 7.91-7.91 7.91c-2.32 2.35-2.32 6.15.02 8.49zm205.55 12.46c0-11.75 9.56-21.31 21.31-21.31s21.31 9.56 21.31 21.31-9.56 21.31-21.31 21.31-21.31-9.56-21.31-21.31zm12 0c0 5.14 4.18 9.31 9.31 9.31 5.14 0 9.31-4.18 9.31-9.31 0-5.14-4.18-9.31-9.31-9.31s-9.31 4.17-9.31 9.31z" fill="url(#SVGID_1_)"/></svg>